name ./resultDataOpenSim/trcMotMarkerGrf/sub06/grf-02-06.mot
datacolumns 19
datarows 27
range 1.48800000 1.59200000
endheader

                time	     ground_force_vx	     ground_force_vy	     ground_force_vz	     ground_force_px	     ground_force_py	     ground_force_pz	   l_ground_force_vx	   l_ground_force_vy	   l_ground_force_vz	   l_ground_force_px	   l_ground_force_py	   l_ground_force_pz	     ground_torque_x	     ground_torque_y	     ground_torque_z	   l_ground_torque_x	   l_ground_torque_y	   l_ground_torque_z	
          1.48800000	        102.16012513	        715.89208818	        -32.99508393	          0.82323036	          0.00000000	          0.13181104	          0.00000000	          0.00000000	          0.00000000	          0.00000000	          0.00000000	          0.00000000	          0.00000000	          4.47724714	          0.00000000	          0.00000000	          0.00000000	          0.00000000	
          1.49200000	        107.99574639	        731.61492643	        -31.47440753	          0.82389499	          0.00000000	          0.13139894	          0.00000000	          0.00000000	          0.00000000	          0.00000000	          0.00000000	          0.00000000	          0.00000000	          4.44065545	          0.00000000	          0.00000000	          0.00000000	          0.00000000	
          1.49600000	        114.02474340	        746.38589319	        -30.24361848	          0.82449459	          0.00000000	          0.13099986	          0.00000000	          0.00000000	          0.00000000	          0.00000000	          0.00000000	          0.00000000	          0.00000000	          4.42975812	          0.00000000	          0.00000000	          0.00000000	          0.00000000	
          1.50000000	        120.30206282	        760.02644762	        -29.60101003	          0.82503924	          0.00000000	          0.13062801	          0.00000000	          0.00000000	          0.00000000	          0.00000000	          0.00000000	          0.00000000	          0.00000000	          4.45565743	          0.00000000	          0.00000000	          0.00000000	          0.00000000	
          1.50400000	        126.84588808	        772.34780272	        -29.72253332	          0.82552702	          0.00000000	          0.13029680	          0.00000000	          0.00000000	          0.00000000	          0.00000000	          0.00000000	          0.00000000	          0.00000000	          4.52235030	          0.00000000	          0.00000000	          0.00000000	          0.00000000	
          1.50800000	        133.62602916	        783.16572411	        -30.63187565	          0.82596672	          0.00000000	          0.13001267	          0.00000000	          0.00000000	          0.00000000	          0.00000000	          0.00000000	          0.00000000	          0.00000000	          4.62620457	          0.00000000	          0.00000000	          0.00000000	          0.00000000	
          1.51200000	        140.55670672	        792.31359936	        -32.19709374	          0.82636948	          0.00000000	          0.12977597	          0.00000000	          0.00000000	          0.00000000	          0.00000000	          0.00000000	          0.00000000	          0.00000000	          4.75717293	          0.00000000	          0.00000000	          0.00000000	          0.00000000	
          1.51600000	        147.49733655	        799.63826448	        -34.16075506	          0.82676074	          0.00000000	          0.12958316	          0.00000000	          0.00000000	          0.00000000	          0.00000000	          0.00000000	          0.00000000	          0.00000000	          4.90116361	          0.00000000	          0.00000000	          0.00000000	          0.00000000	
          1.52000000	        154.27115073	        805.00090336	        -36.19701150	          0.82717151	          0.00000000	          0.12942402	          0.00000000	          0.00000000	          0.00000000	          0.00000000	          0.00000000	          0.00000000	          0.00000000	          5.04270755	          0.00000000	          0.00000000	          0.00000000	          0.00000000	
          1.52400000	        160.69700172	        808.28620324	        -37.97636184	          0.82761732	          0.00000000	          0.12928147	          0.00000000	          0.00000000	          0.00000000	          0.00000000	          0.00000000	          0.00000000	          0.00000000	          5.16724693	          0.00000000	          0.00000000	          0.00000000	          0.00000000	
          1.52800000	        166.62579670	        809.40804497	        -39.22338550	          0.82810450	          0.00000000	          0.12913919	          0.00000000	          0.00000000	          0.00000000	          0.00000000	          0.00000000	          0.00000000	          0.00000000	          5.26272913	          0.00000000	          0.00000000	          0.00000000	          0.00000000	
          1.53200000	        171.98094748	        808.31590255	        -39.76053037	          0.82863231	          0.00000000	          0.12898736	          0.00000000	          0.00000000	          0.00000000	          0.00000000	          0.00000000	          0.00000000	          0.00000000	          5.32043729	          0.00000000	          0.00000000	          0.00000000	          0.00000000	
          1.53600000	        176.80103801	        805.00063757	        -39.52873343	          0.82919503	          0.00000000	          0.12882339	          0.00000000	          0.00000000	          0.00000000	          0.00000000	          0.00000000	          0.00000000	          0.00000000	          5.33510395	          0.00000000	          0.00000000	          0.00000000	          0.00000000	
          1.54000000	        181.26501841	        799.48506615	        -38.58334047	          0.82978812	          0.00000000	          0.12864811	          0.00000000	          0.00000000	          0.00000000	          0.00000000	          0.00000000	          0.00000000	          0.00000000	          5.30453706	          0.00000000	          0.00000000	          0.00000000	          0.00000000	
          1.54400000	        185.64622026	        791.79815830	        -37.08880182	          0.83038046	          0.00000000	          0.12846489	          0.00000000	          0.00000000	          0.00000000	          0.00000000	          0.00000000	          0.00000000	          0.00000000	          5.22932981	          0.00000000	          0.00000000	          0.00000000	          0.00000000	
          1.54800000	        190.18362409	        781.95947143	        -35.31855589	          0.83090514	          0.00000000	          0.12828539	          0.00000000	          0.00000000	          0.00000000	          0.00000000	          0.00000000	          0.00000000	          0.00000000	          5.11333307	          0.00000000	          0.00000000	          0.00000000	          0.00000000	
          1.55200000	        194.96179581	        769.99708692	        -33.60994572	          0.83132433	          0.00000000	          0.12812834	          0.00000000	          0.00000000	          0.00000000	          0.00000000	          0.00000000	          0.00000000	          0.00000000	          4.96478908	          0.00000000	          0.00000000	          0.00000000	          0.00000000	
          1.55600000	        199.89066751	        755.97959096	        -32.26290095	          0.83165495	          0.00000000	          0.12800062	          0.00000000	          0.00000000	          0.00000000	          0.00000000	          0.00000000	          0.00000000	          0.00000000	          4.79671100	          0.00000000	          0.00000000	          0.00000000	          0.00000000	
          1.56000000	        204.76946761	        740.00966253	        -31.46027411	          0.83192104	          0.00000000	          0.12789026	          0.00000000	          0.00000000	          0.00000000	          0.00000000	          0.00000000	          0.00000000	          0.00000000	          4.62480180	          0.00000000	          0.00000000	          0.00000000	          0.00000000	
          1.56400000	        209.34747753	        722.16402813	        -31.24592377	          0.83212884	          0.00000000	          0.12778575	          0.00000000	          0.00000000	          0.00000000	          0.00000000	          0.00000000	          0.00000000	          0.00000000	          4.46260653	          0.00000000	          0.00000000	          0.00000000	          0.00000000	
          1.56800000	        213.35251656	        702.43541482	        -31.52966710	          0.83228366	          0.00000000	          0.12768445	          0.00000000	          0.00000000	          0.00000000	          0.00000000	          0.00000000	          0.00000000	          0.00000000	          4.31557339	          0.00000000	          0.00000000	          0.00000000	          0.00000000	
          1.57200000	        216.53607990	        680.71966505	        -32.11468597	          0.83239990	          0.00000000	          0.12757925	          0.00000000	          0.00000000	          0.00000000	          0.00000000	          0.00000000	          0.00000000	          0.00000000	          4.17689450	          0.00000000	          0.00000000	          0.00000000	          0.00000000	
          1.57600000	        218.72750275	        656.82154899	        -32.73636482	          0.83249207	          0.00000000	          0.12745527	          0.00000000	          0.00000000	          0.00000000	          0.00000000	          0.00000000	          0.00000000	          0.00000000	          4.02763540	          0.00000000	          0.00000000	          0.00000000	          0.00000000	
          1.58000000	        219.82160218	        630.44850690	        -33.08519118	          0.83256007	          0.00000000	          0.12729609	          0.00000000	          0.00000000	          0.00000000	          0.00000000	          0.00000000	          0.00000000	          0.00000000	          3.84177576	          0.00000000	          0.00000000	          0.00000000	          0.00000000	
          1.58400000	        219.68248470	        601.21529611	        -32.83934054	          0.83258380	          0.00000000	          0.12709033	          0.00000000	          0.00000000	          0.00000000	          0.00000000	          0.00000000	          0.00000000	          0.00000000	          3.59454427	          0.00000000	          0.00000000	          0.00000000	          0.00000000	
          1.58800000	        218.04511259	        568.71185697	        -31.72602439	          0.83256347	          0.00000000	          0.12685326	          0.00000000	          0.00000000	          0.00000000	          0.00000000	          0.00000000	          0.00000000	          0.00000000	          3.27106170	          0.00000000	          0.00000000	          0.00000000	          0.00000000	
          1.59200000	        214.51389488	        532.64212395	        -29.57237304	          0.83251636	          0.00000000	          0.12661184	          0.00000000	          0.00000000	          0.00000000	          0.00000000	          0.00000000	          0.00000000	          0.00000000	          2.87216054	          0.00000000	          0.00000000	          0.00000000	          0.00000000	
